# xmcd
#
# Track frame offsets:
#	150
#	17232
#	32920
#	47152
#	59595
#	73735
#	85750
#	100832
#	115240
#	132752
#	149575
#	159820
#	176080
#	190890
#
# Disc length: 2789 seconds
#
# Revision: 0
# Processed by: cddbd v1.5.2PL0 Copyright (c) Steve Scherf et al.
# Submitted via: audiograbber 1.83.01
#
DISCID=c60ae30e
DTITLE=Circuit Rider - CR Volume 19
DYEAR=1999
DGENRE=Gospel
TTITLE0=We Know He´s Coming - Kathy Dykes Brown and From The Heart
TTITLE1=No Call For Help Goes Unansweres - W.c. Taylor
TTITLE2=Unseen Guest - Barry Wayne
TTITLE3=I Saw The Face Of Jesus - Jimmy R. Williams
TTITLE4=Somebody´s Watching - Kenny Hall
TTITLE5=The Bear - Bill Townsend
TTITLE6=The Valley - Lonnie Seser
TTITLE7=Lord You Are Worthy - Rosalie
TTITLE8=Waiting For The Messiah - Ronnie Twisdale
TTITLE9=Love Writen In Blood - Pat Cole
TTITLE10=Noah - The Mcgregory Family
TTITLE11=I´m In It For The Love - Kyle Baber
TTITLE12=Just A Closer Walk Inst. - Steve Mcgregory
TTITLE13=Take My Yoke - Martha Welch
EXTD=
EXTT0=
EXTT1=
EXTT2=
EXTT3=
EXTT4=
EXTT5=
EXTT6=
EXTT7=
EXTT8=
EXTT9=
EXTT10=
EXTT11=
EXTT12=
EXTT13=
PLAYORDER=
